<svg id="visual" viewBox="0 0 900 300" width="900" height="300" xmlns="http://www.w3.org/2000/svg" xmlns:xlink="http://www.w3.org/1999/xlink" version="1.1"><rect x="0" y="0" width="900" height="300" fill="#fff"></rect><path d="M0 78L37.5 81.8C75 85.7 150 93.3 225 96.7C300 100 375 99 450 110.3C525 121.7 600 145.3 675 143.2C750 141 825 113 862.5 99L900 85L900 301L862.5 301C825 301 750 301 675 301C600 301 525 301 450 301C375 301 300 301 225 301C150 301 75 301 37.5 301L0 301Z" fill="#ffffff"></path><path d="M0 125L37.5 129.3C75 133.7 150 142.3 225 151.2C300 160 375 169 450 173.3C525 177.7 600 177.3 675 181.5C750 185.7 825 194.3 862.5 198.7L900 203L900 301L862.5 301C825 301 750 301 675 301C600 301 525 301 450 301C375 301 300 301 225 301C150 301 75 301 37.5 301L0 301Z" fill="#fcf5f1"></path><path d="M0 211L37.5 215.7C75 220.3 150 229.7 225 233.5C300 237.3 375 235.7 450 229.8C525 224 600 214 675 213.3C750 212.7 825 221.3 862.5 225.7L900 230L900 301L862.5 301C825 301 750 301 675 301C600 301 525 301 450 301C375 301 300 301 225 301C150 301 75 301 37.5 301L0 301Z" fill="#f9ebe3"></path><path d="M0 223L37.5 231C75 239 150 255 225 262C300 269 375 267 450 264C525 261 600 257 675 260.8C750 264.7 825 276.3 862.5 282.2L900 288L900 301L862.5 301C825 301 750 301 675 301C600 301 525 301 450 301C375 301 300 301 225 301C150 301 75 301 37.5 301L0 301Z" fill="#f6e2d6"></path></svg>