<svg id="visual" viewBox="0 0 900 150" width="900" height="150" xmlns="http://www.w3.org/2000/svg" xmlns:xlink="http://www.w3.org/1999/xlink" version="1.1"><rect x="0" y="0" width="900" height="150" fill="#fff"></rect><path d="M0 19L15 21.7C30 24.3 60 29.7 90 31.8C120 34 150 33 180 32C210 31 240 30 270 29.7C300 29.3 330 29.7 360 31.8C390 34 420 38 450 39.3C480 40.7 510 39.3 540 33.2C570 27 600 16 630 11.5C660 7 690 9 720 9.3C750 9.7 780 8.3 810 7.7C840 7 870 7 885 7L900 7L900 0L885 0C870 0 840 0 810 0C780 0 750 0 720 0C690 0 660 0 630 0C600 0 570 0 540 0C510 0 480 0 450 0C420 0 390 0 360 0C330 0 300 0 270 0C240 0 210 0 180 0C150 0 120 0 90 0C60 0 30 0 15 0L0 0Z" fill="#f6e2d6" stroke-linecap="round" stroke-linejoin="miter"></path></svg>