<svg 
    id="visual" 
    viewBox="0 0 960 540" 
    width="960" 
    height="540" 
    xmlns="http://www.w3.org/2000/svg" 
    xmlns:xlink="http://www.w3.org/1999/xlink" 
    version="1.1">
    <rect 
        x="0" 
        y="0" 
        width="960" 
        height="540" 
        fill="#ffffff">
    </rect>
    <path 
        d="M0 410L32 389.8C64 369.7 128 329.3 192 308.5C256 287.7 320 286.3 384 304C448 321.7 512 358.3 576 377.7C640 397 704 399 768 403.8C832 408.7 896 416.3 928 420.2L960 424L960 541L928 541C896 541 832 541 768 541C704 541 640 541 576 541C512 541 448 541 384 541C320 541 256 541 192 541C128 541 64 541 32 541L0 541Z" 
        fill="#f6e2d6" 
        stroke-linecap="round" 
        stroke-linejoin="miter">
    </path>
</svg>