<svg id="visual" viewBox="0 0 900 100" width="900" height="100" xmlns="http://www.w3.org/2000/svg" xmlns:xlink="http://www.w3.org/1999/xlink" version="1.1"><rect x="0" y="0" width="900" height="100" fill="#fff"></rect><path d="M0 7L18.8 8.5C37.7 10 75.3 13 112.8 14C150.3 15 187.7 14 225.2 14C262.7 14 300.3 15 337.8 14.8C375.3 14.7 412.7 13.3 450.2 13.2C487.7 13 525.3 14 562.8 13.8C600.3 13.7 637.7 12.3 675.2 12.3C712.7 12.3 750.3 13.7 787.8 14.3C825.3 15 862.7 15 881.3 15L900 15L900 0L881.3 0C862.7 0 825.3 0 787.8 0C750.3 0 712.7 0 675.2 0C637.7 0 600.3 0 562.8 0C525.3 0 487.7 0 450.2 0C412.7 0 375.3 0 337.8 0C300.3 0 262.7 0 225.2 0C187.7 0 150.3 0 112.8 0C75.3 0 37.7 0 18.8 0L0 0Z" fill="#f6e2d6" stroke-linecap="round" stroke-linejoin="miter"></path></svg>