<svg id="visual" viewBox="0 0 675 900" width="675" height="900" xmlns="http://www.w3.org/2000/svg" xmlns:xlink="http://www.w3.org/1999/xlink" version="1.1"><rect x="0" y="0" width="675" height="900" fill="#ffffff"></rect><path d="M340 0L330.5 37.5C321 75 302 150 266 225C230 300 177 375 195.5 450C214 525 304 600 299.8 675C295.7 750 197.3 825 148.2 862.5L99 900L0 900L0 862.5C0 825 0 750 0 675C0 600 0 525 0 450C0 375 0 300 0 225C0 150 0 75 0 37.5L0 0Z" fill="#f6e2d6" stroke-linecap="round" stroke-linejoin="miter"></path></svg>